# AST/ASF file generated using VICON BodyLanguage
# -----------------------------------------------
:version 1.10
:name VICON
:units
  mass 1.0
  length 0.45
  angle deg
:documentation
   .ast/.asf automatically generated from VICON data using
   VICON BodyBuilder and BodyLanguage model FoxedUp or BRILLIANT.MOD
:root
   order TX TY TZ RX RY RZ
   axis XYZ
   position 0 0 0  
   orientation 0 0 0 
:bonedata
  begin
     id 1 
     name lhipjoint
     direction 0.707368 -0.647095 0.284426 
     length 2.60678 
     axis 0 0 0  XYZ
  end
  begin
     id 2 
     name lfemur
     direction 0.34202 -0.939693 0  
     length 6.63812  
     axis 0 0 20  XYZ
    dof rx ry rz
    limits (-160.0 20.0)
           (-70.0 70.0)
           (-60.0 70.0)
  end
  begin
     id 3 
     name ltibia
     direction 0.34202 -0.939693 0   
     length 7.51178   
     axis 0 0 20   XYZ
    dof rx
    limits (-10.0 170.0)
  end
  begin
     id 4 
     name lfoot
     direction 0.121251 -0.333133 0.935051   
     length 1.83716   
     axis -90 7.62852e-016 20   XYZ
    dof rx rz
    limits (-45.0 90.0)
           (-70.0 20.0)
  end
  begin
     id 5 
     name ltoes
     direction 1.53611e-011 -4.21962e-011 1   
     length 0.916133   
     axis -90 7.62852e-016 20   XYZ
    dof rx
    limits (-90.0 20.0)
  end
  begin
     id 6 
     name rhipjoint
     direction -0.692419 -0.660507 0.290321   
     length 2.55385  
     axis 0 0 0  XYZ 
  end
  begin
     id 7 
     name rfemur
     direction -0.34202 -0.939693 0   
     length 7.29079   
     axis 0 0 -20   XYZ
    dof rx ry rz
    limits (-160.0 20.0)
           (-70.0 70.0)
           (-70.0 60.0)
  end
  begin
     id 8 
     name rtibia
     direction -0.34202 -0.939693 0   
     length 7.47143   
     axis 0 0 -20   XYZ
    dof rx
    limits (-10.0 170.0)
 end
 begin
     id 9 
     name rfoot
     direction -0.119907 -0.329441 0.936532   
     length 1.79439  
     axis -90 -7.62852e-016 -20   XYZ
    dof rx rz
    limits (-45.0 90.0)
           (-20.0 70.0)
  end
  begin
     id 10 
     name rtoes
     direction -1.53571e-011 -4.21961e-011 1   
     length 0.896039   
     axis -90 -7.62852e-016 -20   XYZ
    dof rx
    limits (-90.0 20.0)
  end
  begin
     id 11 
     name lowerback
     direction 0.0367721 0.992912 -0.113016   
     length 1.73542   
     axis 0 0 0   XYZ
    dof rx ry rz
    limits (-20.0 45.0)
           (-30.0 30.0)
           (-30.0 30.0)
  end
  begin
     id 12 
     name upperback
     direction -0.000314626 0.990678 0.136227   
     length 1.7514   
     axis 0 0 0   XYZ
    dof rx ry rz
    limits (-20.0 45.0)
           (-30.0 30.0)
           (-30.0 30.0)
  end
  begin
     id 13 
     name thorax
     direction -0.0226159 0.981151 0.191917   
     length 1.71471   
     axis 0 0 0   XYZ
    dof rx ry rz
    limits (-20.0 45.0)
           (-30.0 30.0)
           (-30.0 30.0)
  end
  begin
     id 14 
     name lowerneck
     direction 0.0219333 0.998071 0.0580739   
     length 1.65882   
     axis 0 0 0   XYZ
    dof rx ry rz
    limits (-20.0 45.0)
           (-30.0 30.0)
           (-30.0 30.0)
  end
  begin
     id 15 
     name upperneck
     direction 0.0384529 0.980058 -0.194957   
     length 1.6612   
     axis 0 0 0   XYZ
    dof rx ry rz
    limits (-20.0 45.0)
           (-30.0 30.0)
           (-30.0 30.0)
  end
  begin
     id 16
     name head
     direction 0.00592123 0.997421 -0.0715234  
     length 1.68077  
     axis 0 0 0   XYZ
    dof rx ry rz
    limits (-20.0 45.0)
           (-30.0 30.0)
           (-30.0 30.0)
  end
  begin
     id 17 
     name lclavicle
     direction 0.904803 0.417826 0.0821728  
     length 3.42227  
     axis 0 0 0   XYZ
    dof ry rz
    limits (-20.0 10.0)
           (0.0 20.0)
  end
  begin
     id 18 
     name lhumerus
     direction 1 -4.48965e-011 -2.68786e-027   
     length 5.11878   
     axis -180 -30 -90   XYZ
    dof rx ry rz
    limits (-60.0 90.0)
           (-90.0 90.0)
           (-90.0 90.0)
  end
  begin
     id 19
     name lradius
     direction 1 -4.48965e-011 2.61168e-028   
     length 3.59971   
     axis -180 -30 -90   XYZ
    dof rx
    limits (-10.0 170.0)
  end
  begin
     id 20
     name lwrist
     direction 1 -4.48965e-011 1.58672e-027   
     length 1.79985   
     axis -1.65735e-015 90 90   XYZ
    dof ry
    limits (-180.0 0.0)
 end
  begin
     id 21 
     name lhand
     direction 1 -4.48942e-011 3.17344e-027   
     length 0.62877   
     axis -2.02492e-015 90 90   XYZ
    dof rx rz
    limits (-90.0 90.0)
           (-45.0 45.0)
  end
  begin
     id 22 
     name lfingers
     direction 1 -4.49011e-011 6.34687e-027   
     length 0.506931   
     axis -4.04985e-015 90 90   XYZ
    dof rx
    limits (0.0 90.0)
  end
  begin
     id 23
     name lthumb
     direction 0.707107 -6.34982e-011 0.707107   
     length 0.727854   
     axis -90 45 2.85299e-015   XYZ
    dof rx rz
    limits (-45.0 45.0)
           (-45.0 45.0)
  end
  begin
     id 24 
     name rclavicle
     direction -0.945647 0.32488 0.0143075   
     length 3.52737  
     axis 0 0 0   XYZ 
    dof ry rz
    limits (-10.0 20.0)
           (-20.0 0.0)
  end
  begin
     id 25 
     name rhumerus
     direction -1 -4.48962e-011 1.92182e-027  
     length 5.4902   
     axis -180 30 90   XYZ
    dof rx ry rz
    limits (-90.0 60.0)
           (-90.0 90.0)
           (-90.0 90.0)
  end
  begin
     id 26 
     name rradius
     direction -1 -4.48967e-011 -5.97193e-028   
     length 3.20659   
     axis -180 30 90   XYZ
    dof rx
    limits (-10.0 170.0)
  end
  begin
     id 27 
     name rwrist
     direction -1 -4.48964e-011 1.58672e-027   
     length 1.6033   
     axis -1.65735e-015 -90 -90   XYZ
    dof ry
    limits (-180.0 0.0)
  end
  begin
     id 28
     name rhand
     direction -1 -4.49006e-011 3.17344e-027   
     length 0.691885   
     axis -2.02492e-015 -90 -90   XYZ
    dof rx rz
    limits (-90.0 90.0)
           (-45.0 45.0)
  end
  begin
     id 29
     name rfingers
     direction -1 -4.48908e-011 6.34687e-027   
     length 0.557815   
     axis -4.04985e-015 -90 -90   XYZ
    dof rx
    limits (0.0 90.0)
  end
  begin
     id 30
     name rthumb
     direction -0.707107 -6.34999e-011 0.707107   
     length 0.800915   
     axis -90 -45 -2.85299e-015   XYZ
    dof rx rz
    limits (-45.0 45.0)
           (-45.0 45.0)
  end
:hierarchy
  begin
    root lhipjoint rhipjoint lowerback
    lhipjoint lfemur
    lfemur ltibia
    ltibia lfoot
    lfoot ltoes
    rhipjoint rfemur
    rfemur rtibia
    rtibia rfoot
    rfoot rtoes
    lowerback upperback
    upperback thorax
    thorax lowerneck lclavicle rclavicle
    lowerneck upperneck
    upperneck head
    lclavicle lhumerus
    lhumerus lradius
    lradius lwrist
    lwrist lhand lthumb
    lhand lfingers
    rclavicle rhumerus
    rhumerus rradius
    rradius rwrist
    rwrist rhand rthumb
    rhand rfingers
  end

#!OML:ASF I:\Actors\actors\Patient Classification 1\Patient 1\Session 1\Subject1.ASF
:FULLY-SPECIFIED
:DEGREES
153
root -0.156232 17.4222 8.46249 10.5274 1.17603 -8.71365
lowerback -2.28913 0.995197 6.0574
upperback -8.50851 1.63631 2.61986
thorax -7.56798 0.506644 -0.694148
lowerneck -7.08032 -4.48863 -1.49822
upperneck 9.64711 -6.50255 5.6954
head 4.2849 -2.95493 1.60281
rclavicle 4.2453e-014 -3.23025e-015
rhumerus -44.89 -13.7106 -79.7672
rradius 28.1753
rwrist 33.1809
rhand 23.5071 -37.1977
rfingers 7.12502
rthumb 47.787 -59.5092
lclavicle 4.2453e-014 -3.23025e-015
lhumerus -51.4311 -0.326977 93.551
lradius 40.9466
lwrist -11.6045
lhand -7.55882 -5.71013
lfingers 7.12502
lthumb 18.3333 23.4459
rfemur -4.64994 25.7289 23.3041
rtibia 1.91784
rfoot -13.9078 -27.0859
rtoes 3.42159
lfemur 4.10021 -50.2205 -9.87332
ltibia -4.51708
lfoot -34.3071 58.2043
ltoes 17.5498
154
root -0.155596 17.4216 8.46474 10.5271 1.11244 -8.73344
lowerback -2.33223 1.01306 6.10292
upperback -8.53472 1.65723 2.59281
thorax -7.56922 0.512349 -0.747769
lowerneck -7.08763 -4.50199 -1.45616
upperneck 9.9118 -6.53799 5.66963
head 4.36607 -2.96676 1.58331
rclavicle -1.35049e-014 -2.127e-014
rhumerus -44.9043 -13.7557 -79.7777
rradius 28.102
rwrist 33.2066
rhand 23.5338 -37.3514
rfingers 7.12502
rthumb 47.8117 -59.6516
lclavicle -1.35049e-014 -2.127e-014
lhumerus -52.4637 -1.51065 94.3792
lradius 43.5569
lwrist -12.8301
lhand -7.18339 -5.91757
lfingers 7.12502
lthumb 18.6944 23.2041
rfemur -4.65309 25.6086 23.3076
rtibia 1.89143
rfoot -13.7961 -26.9056
rtoes 3.15444
lfemur 4.20203 -50.3235 -9.93842
ltibia -4.52609
lfoot -34.6475 58.2667
ltoes 17.7221
155
root -0.155168 17.4202 8.46677 10.5208 1.01324 -8.76686
lowerback -2.37817 1.02219 6.13867
upperback -8.5453 1.66626 2.58969
thorax -7.55319 0.514388 -0.770349
lowerneck -7.14483 -4.51627 -1.61144
upperneck 10.1898 -6.5737 5.81965
head 4.47205 -2.97503 1.64777
rclavicle -1.03989e-014 2.5842e-014
rhumerus -44.8893 -13.6198 -79.883
rradius 28.0815
rwrist 33.1205
rhand 23.6157 -37.5102
rfingers 7.12502
rthumb 47.8873 -59.7755
lclavicle -1.03989e-014 2.5842e-014
lhumerus -53.4648 -2.4621 95.1177
lradius 46.1171
lwrist -15.1463
lhand -6.645 -6.786
lfingers 7.12502
lthumb 19.2122 22.285
rfemur -4.70743 25.5045 23.3275
rtibia 1.99172
rfoot -13.8 -26.6855
rtoes 3.25678
lfemur 4.31633 -50.3737 -10.0071
ltibia -4.52392
lfoot -34.8699 58.3633
ltoes 17.7882
156
root -0.154856 17.4194 8.46713 10.5225 0.912731 -8.81598
lowerback -2.40516 1.04496 6.17732
upperback -8.56031 1.69674 2.60414
thorax -7.55237 0.527175 -0.777165
lowerneck -7.20762 -4.54939 -1.82222
upperneck 10.4376 -6.63131 6.00512
head 4.57381 -2.99461 1.73083
rclavicle 3.47873e-015 1.10325e-014
rhumerus -44.8749 -13.4822 -79.9488
rradius 28.0682
rwrist 33.025
rhand 23.6836 -37.6133
rfingers 7.12502
rthumb 47.9498 -59.8495
lclavicle 3.47873e-015 1.10325e-014
lhumerus -54.4535 -3.30999 95.8166
lradius 48.702
lwrist -18.6891
lhand -5.67872 -7.81795
lfingers 7.12502
lthumb 20.1412 21.158
rfemur -4.79133 25.456 23.3654
rtibia 2.1268
rfoot -13.8045 -26.5079
rtoes 3.3073
lfemur 4.35628 -50.3008 -9.98929
ltibia -4.52363
lfoot -34.8911 58.393
ltoes 17.7407
157
root -0.154771 17.4202 8.46664 10.5598 0.807444 -8.77996
lowerback -2.44735 1.08385 6.13965
upperback -8.5926 1.74505 2.58498
thorax -7.56027 0.552241 -0.777453
lowerneck -7.27793 -4.58247 -2.00148
upperneck 10.7481 -6.70145 6.22748
head 4.69733 -3.01536 1.81877
rclavicle -3.35449e-016 5.93372e-014
rhumerus -44.8865 -13.4041 -79.9769
rradius 28.0701
rwrist 32.9708
rhand 23.7906 -37.6831
rfingers 7.12502
rthumb 48.0485 -59.8732
lclavicle -3.35449e-016 5.93372e-014
lhumerus -55.4811 -4.07851 96.4035
lradius 51.3573
lwrist -23.3541
lhand -4.89803 -10.0378
lfingers 7.12502
lthumb 20.8914 18.8573
rfemur -4.90253 25.4236 23.2814
rtibia 2.21089
rfoot -13.7466 -26.3617
rtoes 3.20455
lfemur 4.35951 -50.328 -10.0367
ltibia -4.53595
lfoot -35.0507 58.4761
ltoes 17.8331
158
root -0.154983 17.4218 8.4667 10.5916 0.663431 -8.68327
lowerback -2.48645 1.10791 6.03532
upperback -8.62396 1.77116 2.54949
thorax -7.57041 0.570099 -0.757236
lowerneck -7.232 -4.59464 -2.07805
upperneck 10.9 -6.73552 6.36073
head 4.74485 -3.0251 1.86948
rclavicle 1.87106e-014 1.28216e-014
rhumerus -44.8822 -13.195 -80.1135
rradius 28.1046
rwrist 32.8656
rhand 23.9598 -37.7531
rfingers 7.12502
rthumb 48.2044 -59.8699
lclavicle 1.87106e-014 1.28216e-014
lhumerus -56.5159 -4.75083 96.8942
lradius 53.9317
lwrist -28.0398
lhand -5.42751 -13.8671
lfingers 7.12502
lthumb 20.3826 15.0832
rfemur -4.99416 25.3774 23.128
rtibia 2.26855
rfoot -13.6838 -26.1884
rtoes 3.11346
lfemur 4.40533 -50.3558 -10.2028
ltibia -4.53061
lfoot -35.4471 58.5129
ltoes 18.2474
159
root -0.155701 17.4226 8.4667 10.6089 0.465805 -8.63985
lowerback -2.50373 1.14373 5.9708
upperback -8.64057 1.81542 2.52465
thorax -7.57597 0.59491 -0.748927
lowerneck -7.24053 -4.62678 -2.09228
upperneck 11.0853 -6.79392 6.3954
head 4.80749 -3.04822 1.87671
rclavicle -3.08737e-014 1.53064e-014
rhumerus -44.8394 -12.8435 -80.3777
rradius 28.183
rwrist 32.6246
rhand 24.0462 -37.8601
rfingers 7.12502
rthumb 48.284 -59.9393
lclavicle -3.08737e-014 1.53064e-014
lhumerus -57.5298 -5.44054 97.415
lradius 56.4978
lwrist -31.7507
lhand -7.05361 -17.8536
lfingers 7.12502
lthumb 18.8193 11.2561
rfemur -5.08049 25.3621 23.0432
rtibia 2.33927
rfoot -13.5959 -26.0027
rtoes 2.92199
lfemur 4.51745 -50.3708 -10.3632
ltibia -4.52581
lfoot -36.1389 58.5198
ltoes 18.9771
160
root -0.156383 17.4228 8.4678 10.6406 0.237168 -8.62642
lowerback -2.54281 1.18764 5.93571
upperback -8.65862 1.86905 2.49714
thorax -7.56952 0.622492 -0.759599
lowerneck -7.3704 -4.65604 -2.02805
upperneck 11.4396 -6.85648 6.33692
head 4.93703 -3.0695 1.83818
rclavicle 3.72721e-016 -2.03754e-014
rhumerus -44.8064 -12.3606 -80.7654
rradius 28.294
rwrist 32.2418
rhand 24.0037 -37.9698
rfingers 7.12502
rthumb 48.2449 -60.0675
lclavicle 3.72721e-016 -2.03754e-014
lhumerus -58.5741 -6.20323 97.9825
lradius 59.282
lwrist -34.4272
lhand -9.25544 -20.9875
lfingers 7.12502
lthumb 16.7005 8.31411
rfemur -5.18403 25.3958 22.9837
rtibia 2.41096
rfoot -13.5185 -25.8269
rtoes 2.84589
lfemur 4.73591 -50.6547 -10.5818
ltibia -4.53084
lfoot -37.2949 58.7187
ltoes 19.8756
161
root -0.154822 17.424 8.47202 10.6444 -0.0116845 -8.57977
lowerback -2.59993 1.20224 5.90467
upperback -8.66622 1.88066 2.46348
thorax -7.54316 0.629223 -0.777029
lowerneck -7.38211 -4.62013 -1.96044
upperneck 11.6997 -6.83041 6.31662
head 5.01509 -3.04932 1.82065
rclavicle 3.66509e-015 -2.68359e-015
rhumerus -44.7671 -11.6956 -81.2729
rradius 28.3723
rwrist 31.8453
rhand 23.988 -38.071
rfingers 7.12502
rthumb 48.2305 -60.1755
lclavicle 3.66509e-015 -2.68359e-015
lhumerus -59.6159 -7.01714 98.6222
lradius 62.2104
lwrist -35.6583
lhand -11.9814 -23.1525
lfingers 7.12502
lthumb 14.075 6.35085
rfemur -5.21613 25.365 22.8941
rtibia 2.42542
rfoot -13.3933 -25.5859
rtoes 2.64774
lfemur 5.1404 -51.2007 -11.0229
ltibia -4.51165
lfoot -38.9272 59.0423
ltoes 20.9671
162
root -0.153686 17.4252 8.47317 10.6823 -0.232867 -8.46908
lowerback -2.64735 1.2144 5.82672
upperback -8.68675 1.88859 2.40823
thorax -7.53671 0.635848 -0.791225
lowerneck -7.26228 -4.59378 -2.01413
upperneck 11.7696 -6.81081 6.44827
head 5.02192 -3.03498 1.87358
rclavicle 9.18137e-015 -3.00165e-014
rhumerus -44.7167 -11.0444 -81.7794
rradius 28.4639
rwrist 31.5929
rhand 24.12 -38.2897
rfingers 7.12502
rthumb 48.352 -60.3366
lclavicle 9.18137e-015 -3.00165e-014
lhumerus -60.5841 -7.97111 99.4047
lradius 65.1751
lwrist -35.4099
lhand -14.844 -24.5611
lfingers 7.12502
lthumb 11.3152 5.11369
rfemur -5.30084 25.2553 22.7033
rtibia 2.42453
rfoot -13.2302 -25.3195
rtoes 2.24526
lfemur 5.365 -51.5879 -11.3906
ltibia -4.46678
lfoot -40.235 59.2375
ltoes 21.8309
163
root -0.156913 17.4246 8.46681 10.8112 -0.371094 -8.36012
lowerback -2.68101 1.22795 5.70174
upperback -8.75296 1.90142 2.34792
thorax -7.58876 0.64609 -0.785151
lowerneck -7.20001 -4.60428 -2.04512
upperneck 11.8892 -6.84746 6.58058
head 5.05565 -3.04479 1.91737
rclavicle 1.56046e-014 3.15074e-014
rhumerus -44.7018 -10.4208 -82.3068
rradius 28.6769
rwrist 31.3841
rhand 24.2753 -38.6865
rfingers 7.12502
rthumb 48.495 -60.665
lclavicle 1.56046e-014 3.15074e-014
lhumerus -61.4751 -9.07736 100.239
lradius 68.0953
lwrist -34.623
lhand -17.9933 -25.856
lfingers 7.12502
lthumb 8.2768 3.96184
rfemur -5.54043 25.2309 22.4781
rtibia 2.47338
rfoot -13.1722 -25.1937
rtoes 2.14935
lfemur 5.11972 -51.5426 -11.3279
ltibia -4.41493
lfoot -40.4826 59.2163
ltoes 22.0373
164
root -0.161875 17.4244 8.45957 10.9372 -0.483604 -8.34684
lowerback -2.71908 1.22598 5.64827
upperback -8.81917 1.89618 2.31832
thorax -7.63946 0.643759 -0.785645
lowerneck -7.18586 -4.61082 -1.97836
upperneck 12.0892 -6.88364 6.61976
head 5.11589 -3.05295 1.91503
rclavicle 2.23881e-014 2.127e-014
rhumerus -44.6848 -9.66274 -82.9476
rradius 28.9461
rwrist 31.0916
rhand 24.2921 -39.1341
rfingers 7.12502
rthumb 48.5104 -61.1052
lclavicle 2.23881e-014 2.127e-014
lhumerus -62.2573 -10.1777 100.982
lradius 70.8763
lwrist -33.7584
lhand -21.3572 -27.7098
lfingers 7.12502
lthumb 5.02942 2.21051
rfemur -5.77035 25.2815 22.3859
rtibia 2.52754
rfoot -13.1169 -25.1422
rtoes 2.0259
lfemur 4.79321 -51.2954 -11.0649
ltibia -4.38157
lfoot -40.2028 59.1331
ltoes 21.9766
165
root -0.168387 17.4253 8.45148 11.0341 -0.568364 -8.38179
lowerback -2.73885 1.19601 5.62463
upperback -8.86724 1.85617 2.31919
thorax -7.68347 0.623749 -0.769746
lowerneck -7.18737 -4.60691 -1.9336
upperneck 12.3001 -6.90036 6.63298
head 5.18111 -3.05352 1.90921
rclavicle 7.00716e-015 2.88238e-014
rhumerus -44.6544 -8.7684 -83.6736
rradius 29.2549
rwrist 30.7729
rhand 24.2694 -39.5823
rfingers 7.12502
rthumb 48.4895 -61.5634
lclavicle 7.00716e-015 2.88238e-014
lhumerus -62.9222 -11.2389 101.645
lradius 73.5473
lwrist -32.8967
lhand -24.72 -30.2627
lfingers 7.12502
lthumb 1.78202 -0.290367
rfemur -5.9305 25.3299 22.3921
rtibia 2.53732
rfoot -12.9794 -25.1136
rtoes 1.59323
lfemur 4.47844 -50.8885 -10.7313
ltibia -4.38908
lfoot -39.5462 59.0042
ltoes 21.6521
